<?xml version="1.0" encoding="utf-8"?>
<!-- Generator: Adobe Illustrator 20.1.0, SVG Export Plug-In . SVG Version: 6.00 Build 0)  -->
<!DOCTYPE svg PUBLIC "-//W3C//DTD SVG 1.1//EN" "http://www.w3.org/Graphics/SVG/1.1/DTD/svg11.dtd">
<svg version="1.1" id="Layer_1" xmlns="http://www.w3.org/2000/svg" xmlns:xlink="http://www.w3.org/1999/xlink" x="0px" y="0px"
	 viewBox="0 0 360 504" enable-background="new 0 0 360 504" xml:space="preserve">
<g>
	<path fill="#1897A6" d="M173.5,247.8h-3.1v4h3.1c0.8,0,1.3-0.2,1.7-0.5c0.4-0.4,0.6-0.8,0.6-1.4v0c0-0.7-0.2-1.2-0.6-1.5
		C174.8,248,174.2,247.8,173.5,247.8z"/>
	<path fill="#1897A6" d="M180,212.5c-21.8,0-39.5,17.7-39.5,39.5s17.7,39.5,39.5,39.5s39.5-17.7,39.5-39.5S201.8,212.5,180,212.5z
		 M164.9,247.8h-7.6v3h6.7v2.8h-6.7v5.4h-3.1v-14h10.6V247.8z M175.8,259l-3-4.5h0h-2.4v4.5h-3.1v-14h6.4c1.8,0,3.1,0.5,4.1,1.4
		c0.8,0.8,1.2,1.9,1.2,3.2v0c0,1.1-0.3,2.1-0.8,2.8c-0.6,0.7-1.3,1.2-2.2,1.6l3.4,5H175.8z M192.4,259h-10.6v-14h10.5v2.7h-7.5v2.8
		h6.6v2.7h-6.6v2.9h7.6V259z M205.7,259h-10.6v-14h10.5v2.7h-7.5v2.8h6.6v2.7h-6.6v2.9h7.6V259z"/>
</g>
</svg>
