<?xml version="1.0" encoding="utf-8"?>
<!-- Generator: Adobe Illustrator 20.1.0, SVG Export Plug-In . SVG Version: 6.00 Build 0)  -->
<!DOCTYPE svg PUBLIC "-//W3C//DTD SVG 1.1//EN" "http://www.w3.org/Graphics/SVG/1.1/DTD/svg11.dtd">
<svg version="1.1" id="Layer_1" xmlns="http://www.w3.org/2000/svg" xmlns:xlink="http://www.w3.org/1999/xlink" x="0px" y="0px"
	 viewBox="0 0 360 504" enable-background="new 0 0 360 504" xml:space="preserve">
<g>
	<path fill="#1897A6" d="M174.6,242.4v0.1c0,0.8,0.2,1.5,0.7,2.1c0.5,0.6,1.4,1.1,2.9,1.6v-7c-1.3,0.2-2.2,0.5-2.7,1.1
		C174.9,240.9,174.6,241.6,174.6,242.4z"/>
	<path fill="#1897A6" d="M183.1,255.3v7.3c2.5-0.4,3.7-1.5,3.7-3.3v-0.1c0-0.9-0.3-1.6-0.8-2.2S184.5,255.9,183.1,255.3z"/>
	<path fill="#1897A6" d="M180,212.5c-21.8,0-39.5,17.7-39.5,39.5s17.7,39.5,39.5,39.5s39.5-17.7,39.5-39.5S201.8,212.5,180,212.5z
		 M194.4,258.9c0,1.5-0.3,2.8-0.8,4c-0.5,1.2-1.3,2.2-2.2,3.1c-1,0.9-2.1,1.6-3.5,2.1c-1.4,0.6-2.9,0.9-4.5,1.1v5.2h-5.4v-5.3
		c-2.3-0.3-4.4-0.8-6.5-1.7c-2.1-0.9-4-1.9-5.8-3.3l4.1-5.9c1.4,1.1,2.8,2,4.1,2.7c1.3,0.7,2.8,1.2,4.4,1.5v-8.3
		c-1.9-0.5-3.5-1.1-4.9-1.7c-1.4-0.6-2.6-1.4-3.5-2.2c-0.9-0.9-1.6-1.9-2.1-3.1c-0.5-1.2-0.7-2.5-0.7-4v-0.1c0-1.5,0.3-2.8,0.8-4
		c0.5-1.2,1.3-2.2,2.2-3.1c1-0.9,2.1-1.6,3.5-2.1c1.4-0.5,2.9-0.9,4.5-1.1v-3h5.4v3.1c1.9,0.3,3.6,0.7,5.2,1.4
		c1.6,0.6,3.1,1.5,4.5,2.5l-3.5,6.1c-1-0.7-2.1-1.3-3.2-1.9c-1.1-0.5-2.2-0.9-3.3-1.2v7.9c4,1.1,6.8,2.5,8.6,4.2
		c1.8,1.7,2.7,4.1,2.7,7V258.9z"/>
</g>
</svg>
