<?xml version="1.0" encoding="utf-8"?>
<!-- Generator: Adobe Illustrator 20.1.0, SVG Export Plug-In . SVG Version: 6.00 Build 0)  -->
<!DOCTYPE svg PUBLIC "-//W3C//DTD SVG 1.1//EN" "http://www.w3.org/Graphics/SVG/1.1/DTD/svg11.dtd">
<svg version="1.1" id="Layer_1" xmlns="http://www.w3.org/2000/svg" xmlns:xlink="http://www.w3.org/1999/xlink" x="0px" y="0px"
	 viewBox="0 0 360 504" enable-background="new 0 0 360 504" xml:space="preserve">
<path fill="#1897A6" d="M180,212.5c-21.8,0-39.5,17.7-39.5,39.5s17.7,39.5,39.5,39.5s39.5-17.7,39.5-39.5S201.8,212.5,180,212.5z
	 M180,272.8c-2.2,0-4-1.8-4-4c0-2.2,1.8-4,4-4c2.2,0,4,1.8,4,4C184,270.9,182.2,272.8,180,272.8z M192.1,261.9
	c-0.5,1.2-1.5,1.9-2.9,2c-1.1,0.1-2-0.5-2.8-1.2c-1.5-1.5-3.3-2.5-5.5-2.7c-2.8-0.3-5.2,0.6-7.2,2.6c-0.8,0.8-1.8,1.4-3,1.3
	c-1.2-0.1-2.1-0.7-2.7-1.9c-0.5-1.1-0.5-2.3,0.3-3.3c1.4-1.8,3.3-3.1,5.3-4.1c2-0.9,4.1-1.4,6.8-1.4c4,0.1,7.8,1.7,10.9,5
	C192.4,259.3,192.6,260.6,192.1,261.9z M198.9,254.5c-1.3,1.5-3.3,1.5-4.9,0.2c-1.3-1.1-2.6-2.2-4.1-3.1c-3.7-2.2-7.7-3-11.9-2.6
	c-4.6,0.5-8.5,2.3-11.8,5.5c-1.1,1.1-2.4,1.5-3.8,0.9c-2-0.8-2.7-3.4-1.3-5c1.3-1.5,2.9-2.7,4.5-3.8c3.1-2,6.5-3.4,10.2-3.9
	c1.4-0.2,2.9-0.3,3.7-0.4c7.8,0.1,14,2.7,19.2,7.6C199.9,251.1,200,253.2,198.9,254.5z M205.9,246.6c-1,0.9-2.8,1.1-3.9,0.2
	c-1.1-0.9-2.2-1.8-3.3-2.7c-6-4.5-12.8-6.6-20.3-6.2c-7.4,0.4-13.9,3.2-19.4,8.2c-1.1,1-2.4,1.6-3.9,1c-1.1-0.4-1.8-1.3-2-2.4
	c0-0.1-0.1-0.2-0.1-0.3c0-0.2,0-0.4,0-0.6c0.2-1.4,1.1-2.2,2.1-3.1c1.8-1.6,3.7-3,5.8-4.2c4.5-2.6,9.3-4.3,14.4-4.9
	c1-0.1,1.9-0.2,2.9-0.3c1.3,0,2.5,0,3.8,0c1,0.1,1.9,0.2,2.9,0.3c4.6,0.6,8.9,2,12.9,4.1c3,1.6,5.7,3.6,8.2,5.9
	C207.4,243,207.4,245.2,205.9,246.6z"/>
</svg>
